<svg width="96" height="89" viewBox="0 0 96 89" fill="none" xmlns="http://www.w3.org/2000/svg">
<path d="M14.8252 19.9102C14.3551 19.9102 13.8109 19.8916 13.1924 19.8545C12.5739 19.805 11.9492 19.7308 11.3184 19.6318C11.3431 19.9535 11.3617 20.2751 11.374 20.5967C11.3864 20.9183 11.3926 21.2337 11.3926 21.543C11.3926 22.9408 11.2689 24.2148 11.0215 25.3652C10.7741 26.5156 10.403 27.499 9.9082 28.3154C9.41341 29.1318 8.79492 29.7627 8.05273 30.208C7.32292 30.6657 6.47559 30.8945 5.51074 30.8945C4.78092 30.8945 3.95833 30.7585 3.04297 30.4863C2.13997 30.2142 1.12565 29.7256 0 29.0205L0.371094 28.4268C1.33594 29.0205 2.24512 29.4596 3.09863 29.7441C3.96452 30.0286 4.76855 30.1709 5.51074 30.1709C6.31478 30.1709 6.97656 30.0225 7.49609 29.7256C8.01562 29.4411 8.42383 29.0576 8.7207 28.5752C9.02995 28.1051 9.24023 27.5671 9.35156 26.9609C9.47526 26.3548 9.53711 25.7363 9.53711 25.1055C9.53711 24.2272 9.47526 23.2871 9.35156 22.2852C9.24023 21.2832 9.13509 20.2256 9.03613 19.1123C8.46712 18.9144 8.00326 18.6855 7.64453 18.4258C7.28581 18.1536 7.10645 17.8382 7.10645 17.4795C7.10645 17.1331 7.26725 16.8363 7.58887 16.5889C7.92285 16.3291 8.35579 16.1312 8.8877 15.9951C8.8877 14.9313 8.9681 13.8923 9.12891 12.8779C9.28971 11.8512 9.48763 10.8864 9.72266 9.9834C9.97005 9.0804 10.2298 8.24544 10.502 7.47852C10.7865 6.71159 11.0524 6.05599 11.2998 5.51172C11.5472 4.95508 11.7513 4.52214 11.9121 4.21289C12.0853 3.90365 12.1781 3.74902 12.1904 3.74902L12.8398 4.06445C12.8398 4.07682 12.7409 4.32422 12.543 4.80664C12.3451 5.27669 12.1286 5.94466 11.8936 6.81055C11.6585 7.67643 11.4421 8.71549 11.2441 9.92773C11.0462 11.14 10.9473 12.4883 10.9473 13.9727C10.9473 14.2572 10.9473 14.5602 10.9473 14.8818C10.9473 15.1911 10.9596 15.5003 10.9844 15.8096C12.3574 15.8714 13.5202 16.1807 14.4727 16.7373C15.4375 17.2939 16.2725 18.0609 16.9775 19.0381C18.0413 18.8154 19.0618 18.4382 20.0391 17.9062C21.0286 17.362 21.8945 16.6755 22.6367 15.8467C23.3913 15.0179 23.9912 14.0531 24.4365 12.9521C24.8942 11.8512 25.123 10.6328 25.123 9.29688C25.123 8.23307 24.9622 7.28678 24.6406 6.45801C24.3314 5.61686 23.9108 4.88704 23.3789 4.26855C22.8594 3.6377 22.2533 3.10579 21.5605 2.67285C20.8802 2.23991 20.1751 1.89355 19.4453 1.63379C18.7155 1.36165 17.9857 1.16992 17.2559 1.05859C16.5384 0.934896 15.8766 0.873047 15.2705 0.873047C13.5635 0.873047 12.0234 1.00293 10.6504 1.2627C9.28971 1.52246 8.08366 1.85026 7.03223 2.24609C5.98079 2.64193 5.07161 3.06868 4.30469 3.52637C3.55013 3.98405 2.92546 4.41081 2.43066 4.80664C1.93587 5.20247 1.57096 5.53646 1.33594 5.80859C1.10091 6.08073 0.983398 6.2168 0.983398 6.2168L0.371094 5.80859C0.408203 5.77148 0.556641 5.60449 0.816406 5.30762C1.07617 5.01074 1.45964 4.6582 1.9668 4.25C2.48633 3.82943 3.13574 3.37793 3.91504 2.89551C4.70671 2.41309 5.64681 1.97396 6.73535 1.57812C7.83626 1.16992 9.0918 0.829753 10.502 0.557617C11.9121 0.285482 13.5016 0.149414 15.2705 0.149414C16.2848 0.149414 17.293 0.229818 18.2949 0.390625C19.2969 0.539062 20.2493 0.774089 21.1523 1.0957C22.0553 1.40495 22.8903 1.80697 23.6572 2.30176C24.4365 2.79655 25.1045 3.38411 25.6611 4.06445C26.2301 4.73242 26.6755 5.50553 26.9971 6.38379C27.3187 7.24967 27.4795 8.2207 27.4795 9.29688C27.4795 10.8431 27.195 12.2161 26.626 13.416C26.0693 14.6035 25.321 15.6302 24.3809 16.4961C23.4531 17.3496 22.3831 18.0485 21.1709 18.5928C19.971 19.1247 18.7279 19.502 17.4414 19.7246C17.8743 20.3926 18.2516 21.1348 18.5732 21.9512C18.9567 22.8665 19.3031 23.819 19.6123 24.8086C19.9339 25.7858 20.2679 26.7445 20.6143 27.6846C20.9606 28.6247 21.3379 29.5153 21.7461 30.3564C22.1667 31.1976 22.6553 31.9336 23.2119 32.5645C23.7809 33.2077 24.4427 33.7148 25.1973 34.0859C25.9642 34.457 26.8734 34.6426 27.9248 34.6426C28.667 34.6426 29.4215 34.4756 30.1885 34.1416C30.9678 33.82 31.7594 33.2943 32.5635 32.5645L33.0273 33.084C32.5697 33.5293 32.0996 33.9499 31.6172 34.3457C31.1348 34.7539 30.6276 35.1064 30.0957 35.4033C29.5762 35.7126 29.0257 35.9538 28.4443 36.127C27.863 36.3125 27.2383 36.4053 26.5703 36.4053C25.5684 36.4053 24.6963 36.263 23.9541 35.9785C23.2243 35.7064 22.5872 35.3167 22.043 34.8096C21.4987 34.3148 21.041 33.7272 20.6699 33.0469C20.2988 32.3665 19.9772 31.6243 19.7051 30.8203C19.4329 30.0286 19.1917 29.1813 18.9814 28.2783C18.7835 27.3877 18.5856 26.4847 18.3877 25.5693C18.1403 24.4437 17.862 23.3984 17.5527 22.4336C17.2559 21.4688 16.8786 20.6029 16.4209 19.8359C16.1488 19.873 15.8766 19.8978 15.6045 19.9102C15.3447 19.9102 15.085 19.9102 14.8252 19.9102ZM11.0586 16.5332C11.0833 16.929 11.1143 17.3372 11.1514 17.7578C11.2008 18.166 11.2441 18.568 11.2812 18.9639C11.7513 19.0628 12.2894 19.1309 12.8955 19.168C13.5016 19.2051 14.1696 19.2236 14.8994 19.2236C15.0726 19.2236 15.252 19.2236 15.4375 19.2236C15.623 19.2236 15.8086 19.2113 15.9941 19.1865C15.4251 18.4072 14.7448 17.7887 13.9531 17.3311C13.1738 16.861 12.209 16.5951 11.0586 16.5332ZM8.96191 18.3145C8.93717 18.0671 8.91862 17.8135 8.90625 17.5537C8.89388 17.2816 8.8877 17.0156 8.8877 16.7559C8.56608 16.8301 8.30632 16.929 8.1084 17.0527C7.92285 17.1764 7.83008 17.3063 7.83008 17.4424C7.83008 17.5413 7.91667 17.6712 8.08984 17.832C8.27539 17.9805 8.56608 18.1413 8.96191 18.3145ZM44.123 19.1123C43.6159 20.4854 43.152 21.6357 42.7314 22.5635C42.3232 23.4912 41.9212 24.2396 41.5254 24.8086C41.1419 25.3776 40.7585 25.7858 40.375 26.0332C39.9915 26.2806 39.571 26.4043 39.1133 26.4043C38.5566 26.4043 38.0804 26.2126 37.6846 25.8291C37.2887 25.4333 37.0413 24.8271 36.9424 24.0107C36.5465 24.8643 36.0332 25.5632 35.4023 26.1074C34.7715 26.6393 33.9798 26.9053 33.0273 26.9053C32.5202 26.9053 32.0316 26.8125 31.5615 26.627C31.1038 26.4414 30.6956 26.1569 30.3369 25.7734C29.9782 25.3776 29.6875 24.8828 29.4648 24.2891C29.2546 23.6953 29.1494 22.9964 29.1494 22.1924C29.1494 21.376 29.2484 20.609 29.4463 19.8916C29.6566 19.1742 29.9287 18.5186 30.2627 17.9248C30.5967 17.3187 30.9801 16.7806 31.4131 16.3105C31.8584 15.8405 32.3161 15.4447 32.7861 15.123C33.2562 14.8014 33.7262 14.554 34.1963 14.3809C34.6663 14.2077 35.0993 14.1211 35.4951 14.1211C35.8415 14.1211 36.1755 14.1644 36.4971 14.251C36.8187 14.3376 37.1032 14.4798 37.3506 14.6777C37.6104 14.8633 37.8145 15.1169 37.9629 15.4385C38.1237 15.7601 38.2041 16.1621 38.2041 16.6445C38.2041 17.2135 38.0928 17.7083 37.8701 18.1289C37.6598 18.5495 37.4001 18.902 37.0908 19.1865C36.7939 19.471 36.4847 19.6999 36.1631 19.873C35.8538 20.0462 35.6064 20.1699 35.4209 20.2441L35.1982 19.5205C35.2354 19.5205 35.3714 19.471 35.6064 19.3721C35.8538 19.2731 36.1074 19.1123 36.3672 18.8896C36.6393 18.6546 36.8867 18.3577 37.1094 17.999C37.332 17.6403 37.4434 17.2012 37.4434 16.6816C37.4434 16.0879 37.2764 15.6364 36.9424 15.3271C36.6084 15.0055 36.1816 14.8447 35.6621 14.8447C35.2663 14.8447 34.8024 14.987 34.2705 15.2715C33.7386 15.556 33.2253 16.0013 32.7305 16.6074C32.248 17.2135 31.8337 17.9805 31.4873 18.9082C31.1533 19.8359 30.9863 20.943 30.9863 22.2295C30.9863 23.5036 31.209 24.4746 31.6543 25.1426C32.112 25.8105 32.7243 26.1445 33.4912 26.1445C33.8747 26.1445 34.2396 26.0394 34.5859 25.8291C34.9447 25.6064 35.2725 25.3158 35.5693 24.957C35.8662 24.5983 36.1322 24.1839 36.3672 23.7139C36.6022 23.2314 36.8063 22.7367 36.9795 22.2295C36.9795 21.8337 37.0228 21.3698 37.1094 20.8379C37.2083 20.2936 37.3568 19.7432 37.5547 19.1865L38.6865 19.5576C38.6247 19.7184 38.5628 19.9287 38.501 20.1885C38.4391 20.4482 38.3773 20.7327 38.3154 21.042C38.266 21.3512 38.2227 21.6729 38.1855 22.0068C38.1484 22.3285 38.1299 22.6439 38.1299 22.9531C38.1299 23.918 38.2227 24.5859 38.4082 24.957C38.6061 25.3158 38.9401 25.4951 39.4102 25.4951C39.6823 25.4951 39.9482 25.3962 40.208 25.1982C40.4801 25.0003 40.7708 24.654 41.0801 24.1592C41.3893 23.6644 41.7295 22.9964 42.1006 22.1553C42.4717 21.3018 42.9046 20.2256 43.3994 18.9268L44.123 19.1123ZM44.7539 17.5166C44.6178 17.8753 44.4818 18.2279 44.3457 18.5742C44.222 18.9206 44.0798 19.2669 43.9189 19.6133C43.7705 19.9596 43.5911 20.2998 43.3809 20.6338C43.1706 20.9678 42.917 21.3079 42.6201 21.6543L42.4717 21.5059C42.7933 20.7266 43.0778 19.9287 43.3252 19.1123C43.5726 18.2959 43.82 17.3805 44.0674 16.3662C44.0055 16.193 43.9499 16.0446 43.9004 15.9209C43.8509 15.7972 43.8076 15.6859 43.7705 15.5869C43.7334 15.4756 43.7025 15.3643 43.6777 15.2529C43.653 15.1292 43.6406 14.9932 43.6406 14.8447C43.6406 14.6468 43.6654 14.4303 43.7148 14.1953C43.7767 13.9479 43.8571 13.7191 43.9561 13.5088C44.0674 13.2985 44.1911 13.1253 44.3271 12.9893C44.4632 12.8408 44.6055 12.7666 44.7539 12.7666C44.9271 12.7666 45.0632 12.8099 45.1621 12.8965C45.2734 12.9707 45.36 13.0697 45.4219 13.1934C45.4837 13.3171 45.527 13.4469 45.5518 13.583C45.5765 13.7191 45.5889 13.849 45.5889 13.9727C45.5889 14.1582 45.5641 14.3747 45.5146 14.6221C45.4775 14.8571 45.4281 15.0921 45.3662 15.3271C45.3167 15.5498 45.2673 15.7477 45.2178 15.9209C45.1807 16.0941 45.1621 16.2054 45.1621 16.2549C45.2611 16.5889 45.4281 16.929 45.6631 17.2754C45.9105 17.6217 46.1888 17.9743 46.498 18.333C46.8073 18.6917 47.1289 19.069 47.4629 19.4648C47.8092 19.8483 48.1185 20.2565 48.3906 20.6895C48.6751 21.1224 48.904 21.5863 49.0771 22.0811C49.2627 22.5635 49.3555 23.0768 49.3555 23.6211C49.3555 24.4004 49.238 25.0312 49.0029 25.5137C48.7803 25.9961 48.4772 26.3672 48.0938 26.627C48.6504 26.4043 49.1699 26.0085 49.6523 25.4395C50.1471 24.8704 50.5986 24.221 51.0068 23.4912C51.4274 22.749 51.8109 21.9759 52.1572 21.1719C52.516 20.3678 52.8314 19.6195 53.1035 18.9268L53.8271 19.1123C53.4066 20.1885 52.9613 21.2399 52.4912 22.2666C52.0212 23.2933 51.4893 24.2087 50.8955 25.0127C50.3018 25.8167 49.6276 26.4661 48.873 26.9609C48.1309 27.4557 47.2773 27.7031 46.3125 27.7031C46.0527 27.7031 45.7868 27.6846 45.5146 27.6475C45.2549 27.598 44.9951 27.5299 44.7354 27.4434C44.488 27.3444 44.2529 27.2145 44.0303 27.0537C43.8076 26.8929 43.6159 26.7012 43.4551 26.4785L44.0674 26.0703C44.1787 26.2435 44.3519 26.4043 44.5869 26.5527C44.8219 26.7012 45.1312 26.7754 45.5146 26.7754C45.8857 26.7754 46.2074 26.7012 46.4795 26.5527C46.764 26.3919 46.999 26.1816 47.1846 25.9219C47.3825 25.6497 47.5247 25.3343 47.6113 24.9756C47.7103 24.6169 47.7598 24.2334 47.7598 23.8252C47.7598 22.984 47.6361 22.2604 47.3887 21.6543C47.1536 21.0482 46.8691 20.5101 46.5352 20.04C46.2135 19.5576 45.8796 19.1185 45.5332 18.7227C45.1992 18.3268 44.9395 17.9248 44.7539 17.5166ZM60.21 23.7139C59.8265 24.4066 59.4554 24.9818 59.0967 25.4395C58.738 25.8971 58.3792 26.262 58.0205 26.5342C57.6742 26.8063 57.3216 26.998 56.9629 27.1094C56.6042 27.2207 56.2331 27.2764 55.8496 27.2764C55.5404 27.2764 55.1878 27.2269 54.792 27.1279C54.3962 27.029 54.0189 26.8249 53.6602 26.5156C53.3138 26.194 53.0169 25.7363 52.7695 25.1426C52.5345 24.5488 52.417 23.751 52.417 22.749C52.417 21.7471 52.5345 20.807 52.7695 19.9287C53.0046 19.0381 53.2643 18.2588 53.5488 17.5908C53.8828 16.8239 54.2663 16.1126 54.6992 15.457L55.3857 15.6797C55.3734 15.6921 55.3301 15.8034 55.2559 16.0137C55.194 16.224 55.1074 16.5085 54.9961 16.8672C54.8971 17.2259 54.7858 17.6403 54.6621 18.1104C54.5508 18.5804 54.4395 19.0814 54.3281 19.6133C54.2292 20.1328 54.1426 20.6647 54.0684 21.209C54.0065 21.7533 53.9756 22.279 53.9756 22.7861C53.9756 23.9489 54.1797 24.8704 54.5879 25.5508C55.0085 26.2188 55.5527 26.5527 56.2207 26.5527C56.9629 26.5527 57.6803 26.126 58.373 25.2725C59.0658 24.4066 59.7275 23.2005 60.3584 21.6543C60.4697 20.9368 60.6182 20.2689 60.8037 19.6504C61.0016 19.0319 61.1934 18.4814 61.3789 17.999C61.5768 17.5166 61.7562 17.1146 61.917 16.793C62.0778 16.4714 62.1953 16.2549 62.2695 16.1436L62.9189 16.292C62.721 17.2197 62.5479 18.0547 62.3994 18.7969C62.2633 19.5267 62.152 20.1885 62.0654 20.7822C61.9788 21.376 61.9108 21.9079 61.8613 22.3779C61.8242 22.8356 61.8057 23.25 61.8057 23.6211C61.8057 24.3633 61.9232 24.957 62.1582 25.4023C62.3932 25.8477 62.7581 26.0703 63.2529 26.0703C63.5869 26.0703 63.9085 25.9466 64.2178 25.6992C64.527 25.4518 64.8486 25.0436 65.1826 24.4746C65.5166 23.9056 65.8691 23.1696 66.2402 22.2666C66.6113 21.3636 67.0319 20.2503 67.502 18.9268L68.2256 19.1123C68.0153 19.6318 67.805 20.1885 67.5947 20.7822C67.3844 21.376 67.1556 21.9697 66.9082 22.5635C66.6732 23.1572 66.4196 23.7262 66.1475 24.2705C65.8877 24.8148 65.5908 25.2972 65.2568 25.7178C64.9352 26.1383 64.5827 26.4723 64.1992 26.7197C63.8158 26.9671 63.389 27.0908 62.9189 27.0908C62.4736 27.0908 62.084 27.0042 61.75 26.8311C61.416 26.6579 61.1315 26.4229 60.8965 26.126C60.6738 25.8291 60.5007 25.4766 60.377 25.0684C60.2656 24.6478 60.21 24.1963 60.21 23.7139ZM73.9219 4.62109C73.9219 5.40039 73.8291 6.22917 73.6436 7.10742C73.4704 7.98568 73.2354 8.8763 72.9385 9.7793C72.654 10.6823 72.32 11.5915 71.9365 12.5068C71.5654 13.4222 71.1882 14.3005 70.8047 15.1416C70.4212 15.9827 70.0439 16.7806 69.6729 17.5352C69.3018 18.2897 68.974 18.9639 68.6895 19.5576C68.7389 20.5719 68.8255 21.4873 68.9492 22.3037C69.0729 23.1201 69.2275 23.819 69.4131 24.4004C69.5986 24.9694 69.8213 25.4085 70.0811 25.7178C70.3408 26.027 70.6377 26.1816 70.9717 26.1816C71.3428 26.1816 71.7077 26.0085 72.0664 25.6621C72.4375 25.3158 72.8086 24.8271 73.1797 24.1963C73.5508 23.5654 73.9281 22.8047 74.3115 21.9141C74.695 21.0234 75.0846 20.0277 75.4805 18.9268L76.2041 19.1123C75.9072 19.9658 75.5732 20.8688 75.2021 21.8213C74.8311 22.7614 74.4167 23.6273 73.959 24.4189C73.5013 25.2106 73.0003 25.8662 72.4561 26.3857C71.9242 26.9053 71.349 27.165 70.7305 27.165C70.112 27.165 69.5924 26.9733 69.1719 26.5898C68.7513 26.2064 68.4049 25.7054 68.1328 25.0869C67.8607 24.4561 67.6504 23.7448 67.502 22.9531C67.3535 22.1491 67.2422 21.3327 67.168 20.5039C67.0938 19.6751 67.0505 18.8711 67.0381 18.0918C67.0257 17.3001 67.0195 16.6012 67.0195 15.9951C67.0195 14.8695 67.0628 13.75 67.1494 12.6367C67.2484 11.5234 67.3906 10.4596 67.5762 9.44531C67.7741 8.43099 68.0091 7.49089 68.2812 6.625C68.5534 5.74674 68.8688 4.99219 69.2275 4.36133C69.5986 3.7181 70.0007 3.21712 70.4336 2.8584C70.8789 2.49967 71.3613 2.32031 71.8809 2.32031C72.252 2.32031 72.5674 2.38216 72.8271 2.50586C73.0869 2.62956 73.2972 2.79655 73.458 3.00684C73.6188 3.21712 73.7363 3.46452 73.8105 3.74902C73.8848 4.02116 73.9219 4.31185 73.9219 4.62109ZM68.5781 15.3086C68.5781 15.7786 68.5781 16.2425 68.5781 16.7002C68.5781 17.1455 68.5905 17.5785 68.6152 17.999C68.9245 17.3805 69.2523 16.7064 69.5986 15.9766C69.945 15.2344 70.2852 14.4736 70.6191 13.6943C70.9655 12.9027 71.2933 12.1048 71.6025 11.3008C71.9118 10.4967 72.1839 9.71126 72.4189 8.94434C72.654 8.16504 72.8395 7.42904 72.9756 6.73633C73.124 6.03125 73.1982 5.39421 73.1982 4.8252C73.1982 4.63965 73.1797 4.44173 73.1426 4.23145C73.1178 4.02116 73.0622 3.82943 72.9756 3.65625C72.9014 3.4707 72.79 3.32227 72.6416 3.21094C72.4932 3.08724 72.3014 3.02539 72.0664 3.02539C71.5964 3.02539 71.1449 3.33464 70.7119 3.95312C70.2913 4.55924 69.9202 5.40658 69.5986 6.49512C69.2894 7.58366 69.042 8.88249 68.8564 10.3916C68.6709 11.8883 68.5781 13.5273 68.5781 15.3086ZM76.9092 7.86816C77.07 7.65788 77.2246 7.43522 77.373 7.2002C77.5339 6.96517 77.6699 6.73633 77.7812 6.51367C77.9049 6.27865 78.0039 6.0498 78.0781 5.82715C78.1523 5.59212 78.1956 5.38184 78.208 5.19629C78.1462 5.22103 78.0781 5.2334 78.0039 5.2334C77.9421 5.2334 77.8802 5.2334 77.8184 5.2334C77.3978 5.2334 77.0824 5.09733 76.8721 4.8252C76.6742 4.54069 76.5752 4.25 76.5752 3.95312C76.5752 3.56966 76.6989 3.25423 76.9463 3.00684C77.2061 2.74707 77.5277 2.61719 77.9111 2.61719C78.3688 2.61719 78.7214 2.77799 78.9688 3.09961C79.2161 3.42122 79.3398 3.82943 79.3398 4.32422C79.3398 4.6582 79.2904 5.00456 79.1914 5.36328C79.0924 5.72201 78.9564 6.07454 78.7832 6.4209C78.61 6.76725 78.4059 7.10124 78.1709 7.42285C77.9482 7.7321 77.707 8.0166 77.4473 8.27637L76.9092 7.86816ZM80.5273 7.86816C80.849 7.44759 81.1396 6.99609 81.3994 6.51367C81.6592 6.01888 81.8014 5.57975 81.8262 5.19629C81.7643 5.22103 81.6963 5.2334 81.6221 5.2334C81.5602 5.2334 81.4984 5.2334 81.4365 5.2334C81.016 5.2334 80.7005 5.09733 80.4902 4.8252C80.2799 4.54069 80.1748 4.25 80.1748 3.95312C80.1748 3.56966 80.2985 3.25423 80.5459 3.00684C80.8057 2.74707 81.1273 2.61719 81.5107 2.61719C81.9684 2.61719 82.321 2.77799 82.5684 3.09961C82.8281 3.42122 82.958 3.82943 82.958 4.32422C82.958 4.6582 82.9085 5.00456 82.8096 5.36328C82.7106 5.72201 82.5745 6.07454 82.4014 6.4209C82.2282 6.76725 82.0241 7.10124 81.7891 7.42285C81.5664 7.7321 81.3252 8.0166 81.0654 8.27637L80.5273 7.86816ZM85.9453 17.5166C85.8092 17.8753 85.6732 18.2279 85.5371 18.5742C85.4134 18.9206 85.2712 19.2669 85.1104 19.6133C84.9619 19.9596 84.7826 20.2998 84.5723 20.6338C84.362 20.9678 84.1084 21.3079 83.8115 21.6543L83.6631 21.5059C83.9847 20.7266 84.2692 19.9287 84.5166 19.1123C84.764 18.2959 85.0114 17.3805 85.2588 16.3662C85.1969 16.193 85.1413 16.0446 85.0918 15.9209C85.0423 15.7972 84.999 15.6859 84.9619 15.5869C84.9248 15.4756 84.8939 15.3643 84.8691 15.2529C84.8444 15.1292 84.832 14.9932 84.832 14.8447C84.832 14.6468 84.8568 14.4303 84.9062 14.1953C84.9681 13.9479 85.0485 13.7191 85.1475 13.5088C85.2588 13.2985 85.3825 13.1253 85.5186 12.9893C85.6546 12.8408 85.7969 12.7666 85.9453 12.7666C86.1185 12.7666 86.2546 12.8099 86.3535 12.8965C86.4648 12.9707 86.5514 13.0697 86.6133 13.1934C86.6751 13.3171 86.7184 13.4469 86.7432 13.583C86.7679 13.7191 86.7803 13.849 86.7803 13.9727C86.7803 14.1582 86.7555 14.3747 86.7061 14.6221C86.6689 14.8571 86.6195 15.0921 86.5576 15.3271C86.5081 15.5498 86.4587 15.7477 86.4092 15.9209C86.3721 16.0941 86.3535 16.2054 86.3535 16.2549C86.4525 16.5889 86.6195 16.929 86.8545 17.2754C87.1019 17.6217 87.3802 17.9743 87.6895 18.333C87.9987 18.6917 88.3203 19.069 88.6543 19.4648C89.0007 19.8483 89.3099 20.2565 89.582 20.6895C89.8665 21.1224 90.0954 21.5863 90.2686 22.0811C90.4541 22.5635 90.5469 23.0768 90.5469 23.6211C90.5469 24.4004 90.4294 25.0312 90.1943 25.5137C89.9717 25.9961 89.6686 26.3672 89.2852 26.627C89.8418 26.4043 90.3613 26.0085 90.8438 25.4395C91.3385 24.8704 91.79 24.221 92.1982 23.4912C92.6188 22.749 93.0023 21.9759 93.3486 21.1719C93.7074 20.3678 94.0228 19.6195 94.2949 18.9268L95.0186 19.1123C94.598 20.1885 94.1527 21.2399 93.6826 22.2666C93.2126 23.2933 92.6807 24.2087 92.0869 25.0127C91.4932 25.8167 90.819 26.4661 90.0645 26.9609C89.3223 27.4557 88.4688 27.7031 87.5039 27.7031C87.2441 27.7031 86.9782 27.6846 86.7061 27.6475C86.4463 27.598 86.1865 27.5299 85.9268 27.4434C85.6794 27.3444 85.4443 27.2145 85.2217 27.0537C84.999 26.8929 84.8073 26.7012 84.6465 26.4785L85.2588 26.0703C85.3701 26.2435 85.5433 26.4043 85.7783 26.5527C86.0133 26.7012 86.3226 26.7754 86.7061 26.7754C87.0771 26.7754 87.3988 26.7012 87.6709 26.5527C87.9554 26.3919 88.1904 26.1816 88.376 25.9219C88.5739 25.6497 88.7161 25.3343 88.8027 24.9756C88.9017 24.6169 88.9512 24.2334 88.9512 23.8252C88.9512 22.984 88.8275 22.2604 88.5801 21.6543C88.3451 21.0482 88.0605 20.5101 87.7266 20.04C87.4049 19.5576 87.071 19.1185 86.7246 18.7227C86.3906 18.3268 86.1309 17.9248 85.9453 17.5166ZM21.2822 51.8564C20.8988 51.9925 20.5215 52.1471 20.1504 52.3203C19.7793 52.4811 19.4206 52.6543 19.0742 52.8398C19.7669 53.4336 20.3236 54.1696 20.7441 55.0479C21.1771 55.9261 21.3936 56.9404 21.3936 58.0908C21.3936 59.0309 21.2699 59.8968 21.0225 60.6885C20.7874 61.4801 20.4535 62.1605 20.0205 62.7295C19.5876 63.2985 19.0742 63.7438 18.4805 64.0654C17.8991 64.387 17.262 64.5479 16.5693 64.5479C16.0622 64.5479 15.5612 64.4613 15.0664 64.2881C14.5716 64.1149 14.1263 63.849 13.7305 63.4902C13.347 63.1315 13.0316 62.6862 12.7842 62.1543C12.5492 61.61 12.4316 60.9668 12.4316 60.2246C12.4316 59.3958 12.5677 58.6104 12.8398 57.8682C13.112 57.1136 13.4769 56.4209 13.9346 55.79C14.4046 55.1468 14.9489 54.5654 15.5674 54.0459C16.1859 53.514 16.8353 53.0501 17.5156 52.6543C17.1569 52.4811 16.7673 52.3451 16.3467 52.2461C15.9385 52.1348 15.5179 52.0791 15.085 52.0791C14.3304 52.0791 13.5264 52.2214 12.6729 52.5059C11.8193 52.7904 10.972 53.2171 10.1309 53.7861C9.30208 54.3551 8.50423 55.0602 7.7373 55.9014C6.98275 56.7301 6.30859 57.7012 5.71484 58.8145C5.13346 59.9277 4.6696 61.1709 4.32324 62.5439C3.97689 63.917 3.80371 65.4199 3.80371 67.0527C3.80371 68.7103 4.04492 70.2812 4.52734 71.7656C5.00977 73.25 5.71484 74.555 6.64258 75.6807C7.57031 76.8063 8.70833 77.6969 10.0566 78.3525C11.4173 79.0081 12.9697 79.3359 14.7139 79.3359C15.7282 79.3359 16.7178 79.1813 17.6826 78.8721C18.6598 78.5752 19.5814 78.1608 20.4473 77.6289C21.3132 77.0846 22.111 76.4414 22.8408 75.6992C23.5706 74.9447 24.2015 74.1283 24.7334 73.25L25.3086 73.584C24.7148 74.6849 23.9974 75.6683 23.1562 76.5342C22.3275 77.4001 21.4059 78.1361 20.3916 78.7422C19.3773 79.3483 18.2949 79.8122 17.1445 80.1338C15.9941 80.4554 14.8128 80.6162 13.6006 80.6162C11.8564 80.6162 10.2484 80.307 8.77637 79.6885C7.30436 79.0824 6.03027 78.2165 4.9541 77.0908C3.8903 75.9652 3.05534 74.6107 2.44922 73.0273C1.85547 71.4316 1.55859 69.6566 1.55859 67.7021C1.55859 65.9333 1.75033 64.3066 2.13379 62.8223C2.51725 61.3255 3.04297 59.971 3.71094 58.7588C4.37891 57.5465 5.15202 56.4827 6.03027 55.5674C6.9209 54.6396 7.86719 53.8665 8.86914 53.248C9.87109 52.6172 10.904 52.1471 11.9678 51.8379C13.0316 51.5163 14.0706 51.3555 15.085 51.3555C15.6416 51.3555 16.1859 51.4421 16.7178 51.6152C17.262 51.776 17.7692 51.9987 18.2393 52.2832C18.734 52.0482 19.2288 51.8564 19.7236 51.708C20.2184 51.5596 20.7008 51.4421 21.1709 51.3555L21.2822 51.8564ZM20.6699 58.0537C20.6699 57.0394 20.4658 56.124 20.0576 55.3076C19.6618 54.4788 19.1175 53.7985 18.4248 53.2666C17.8187 53.6624 17.2497 54.1201 16.7178 54.6396C16.1982 55.1468 15.7467 55.7158 15.3633 56.3467C14.9798 56.9652 14.6768 57.6455 14.4541 58.3877C14.2438 59.1175 14.1387 59.903 14.1387 60.7441C14.1387 61.1895 14.1943 61.6038 14.3057 61.9873C14.4294 62.3584 14.6025 62.68 14.8252 62.9521C15.0479 63.2243 15.32 63.4408 15.6416 63.6016C15.9632 63.75 16.3219 63.8242 16.7178 63.8242C17.3857 63.8242 17.9671 63.6325 18.4619 63.249C18.9567 62.8656 19.3649 62.3893 19.6865 61.8203C20.0205 61.2389 20.2679 60.6143 20.4287 59.9463C20.5895 59.266 20.6699 58.6351 20.6699 58.0537ZM32.0625 76.3301C32.7552 76.3301 33.417 76.0765 34.0479 75.5693C34.6911 75.0622 35.1921 74.3262 35.5508 73.3613H35.4023C34.6354 73.3613 33.9242 73.2314 33.2686 72.9717C32.6253 72.7119 32.0625 72.3532 31.5801 71.8955C31.11 71.4255 30.7389 70.8688 30.4668 70.2256C30.1947 69.57 30.0586 68.8525 30.0586 68.0732C30.0586 67.6403 30.1143 67.2012 30.2256 66.7559C30.3493 66.3105 30.5348 65.9147 30.7822 65.5684C31.0296 65.2096 31.3512 64.9189 31.7471 64.6963C32.1429 64.4736 32.613 64.3623 33.1572 64.3623C33.6025 64.3623 34.0417 64.4551 34.4746 64.6406C34.9076 64.8138 35.2972 65.1169 35.6436 65.5498C35.9899 65.9827 36.2682 66.5703 36.4785 67.3125C36.7012 68.0423 36.8125 68.9701 36.8125 70.0957C36.8125 70.5163 36.7939 70.9368 36.7568 71.3574C36.7197 71.7656 36.6517 72.1676 36.5527 72.5635C37.0352 72.4769 37.4619 72.3223 37.833 72.0996C38.2165 71.877 38.5505 71.611 38.835 71.3018C39.1318 70.9801 39.3916 70.6214 39.6143 70.2256C39.8369 69.8174 40.041 69.3844 40.2266 68.9268L40.9502 69.1123C40.6904 69.8174 40.3874 70.4173 40.041 70.9121C39.707 71.4069 39.3421 71.8213 38.9463 72.1553C38.5628 72.4893 38.1546 72.749 37.7217 72.9346C37.3011 73.1077 36.862 73.2253 36.4043 73.2871C36.2311 73.8932 36.0023 74.4622 35.7178 74.9941C35.4333 75.526 35.0869 75.9899 34.6787 76.3857C34.2705 76.7816 33.7943 77.097 33.25 77.332C32.7181 77.5547 32.1182 77.666 31.4502 77.666C30.8936 77.666 30.3307 77.5547 29.7617 77.332C29.2051 77.097 28.6979 76.7445 28.2402 76.2744C27.7949 75.792 27.43 75.1921 27.1455 74.4746C26.8734 73.7448 26.7373 72.8789 26.7373 71.877C26.7373 71.2214 26.8115 70.5781 26.96 69.9473C27.1208 69.3164 27.3372 68.7227 27.6094 68.166C27.8939 67.597 28.2279 67.0713 28.6113 66.5889C28.9948 66.0941 29.4092 65.6673 29.8545 65.3086L30.1328 65.7725C29.8483 66.0322 29.5762 66.3538 29.3164 66.7373C29.0566 67.1208 28.8216 67.5475 28.6113 68.0176C28.401 68.4753 28.234 68.9639 28.1104 69.4834C27.9867 69.9906 27.9248 70.4977 27.9248 71.0049C27.9248 72.0068 28.0485 72.848 28.2959 73.5283C28.5557 74.2087 28.8835 74.7591 29.2793 75.1797C29.6751 75.5879 30.1204 75.8848 30.6152 76.0703C31.11 76.2435 31.5924 76.3301 32.0625 76.3301ZM33.1201 65.0859C32.7861 65.0859 32.4769 65.1602 32.1924 65.3086C31.9079 65.4447 31.6605 65.6364 31.4502 65.8838C31.2399 66.1312 31.0729 66.4281 30.9492 66.7744C30.8255 67.1208 30.7637 67.5042 30.7637 67.9248C30.7637 68.6546 30.8874 69.3102 31.1348 69.8916C31.3822 70.473 31.7161 70.9678 32.1367 71.376C32.5697 71.7842 33.0706 72.0996 33.6396 72.3223C34.2087 72.5326 34.821 72.6377 35.4766 72.6377H35.8291C35.9281 72.2542 35.9961 71.8522 36.0332 71.4316C36.0703 71.0111 36.0889 70.5534 36.0889 70.0586C36.0641 69.1061 35.9652 68.3145 35.792 67.6836C35.6312 67.0404 35.4209 66.527 35.1611 66.1436C34.9014 65.7601 34.5921 65.488 34.2334 65.3271C33.887 65.1663 33.516 65.0859 33.1201 65.0859ZM47.4814 55.2334C47.4814 56.1735 47.3083 57.1755 46.9619 58.2393C46.6279 59.3031 46.1888 60.404 45.6445 61.542C45.1003 62.68 44.4818 63.8428 43.7891 65.0303C43.1087 66.2054 42.4284 67.3743 41.748 68.5371C41.612 69.6875 41.4821 70.8317 41.3584 71.9697C41.2471 73.1077 41.1481 74.1901 41.0615 75.2168C40.9873 76.2311 40.9255 77.165 40.876 78.0186C40.8265 78.8721 40.8018 79.5895 40.8018 80.1709C40.8018 81.3584 40.8574 82.4222 40.9688 83.3623C41.0924 84.3148 41.2718 85.1188 41.5068 85.7744C41.7542 86.4424 42.0511 86.9495 42.3975 87.2959C42.7562 87.6546 43.1768 87.834 43.6592 87.834C43.9313 87.834 44.1602 87.7474 44.3457 87.5742C44.5312 87.401 44.6859 87.1784 44.8096 86.9062C44.9333 86.6341 45.026 86.3249 45.0879 85.9785C45.1497 85.6322 45.193 85.2858 45.2178 84.9395C45.2549 84.5931 45.2734 84.2653 45.2734 83.9561C45.2858 83.6468 45.292 83.387 45.292 83.1768C45.292 81.7913 45.1992 80.4678 45.0137 79.2061C44.8281 77.9567 44.5993 76.8805 44.3271 75.9775H44.1787C43.8818 75.9775 43.5973 75.9404 43.3252 75.8662C43.0654 75.7796 42.8304 75.6621 42.6201 75.5137C42.4098 75.3652 42.2428 75.1921 42.1191 74.9941C41.9954 74.7962 41.9336 74.5798 41.9336 74.3447C41.9336 74.0107 42.0326 73.7262 42.2305 73.4912C42.4408 73.2562 42.7005 73.1387 43.0098 73.1387C43.3932 73.1387 43.7581 73.3242 44.1045 73.6953C44.4508 74.054 44.7663 74.5365 45.0508 75.1426C45.5456 74.9447 45.9971 74.5983 46.4053 74.1035C46.8258 73.6087 47.2031 73.0583 47.5371 72.4521C47.8711 71.8337 48.1618 71.209 48.4092 70.5781C48.6689 69.9473 48.8916 69.3968 49.0771 68.9268L49.8008 69.1123C49.6029 69.6442 49.3678 70.2503 49.0957 70.9307C48.8236 71.5986 48.5081 72.2542 48.1494 72.8975C47.7907 73.5283 47.3763 74.1097 46.9062 74.6416C46.4486 75.1611 45.9229 75.5322 45.3291 75.7549C45.527 76.2744 45.7064 76.8372 45.8672 77.4434C46.028 78.0371 46.1641 78.6494 46.2754 79.2803C46.3991 79.9111 46.4919 80.542 46.5537 81.1729C46.6156 81.8037 46.6465 82.416 46.6465 83.0098C46.6465 83.8014 46.5785 84.5374 46.4424 85.2178C46.3187 85.8981 46.127 86.4857 45.8672 86.9805C45.6198 87.4876 45.3044 87.8835 44.9209 88.168C44.5498 88.4525 44.1107 88.5947 43.6035 88.5947C42.9232 88.5947 42.3418 88.4277 41.8594 88.0938C41.3893 87.7721 40.9935 87.3392 40.6719 86.7949C40.3503 86.2507 40.0967 85.6322 39.9111 84.9395C39.7256 84.2591 39.5833 83.5602 39.4844 82.8428C39.3978 82.1253 39.3421 81.4202 39.3174 80.7275C39.2926 80.0472 39.2803 79.4411 39.2803 78.9092C39.2803 77.6846 39.3359 76.3115 39.4473 74.79C39.5586 73.2686 39.707 71.71 39.8926 70.1143C40.0781 68.5186 40.2822 66.9414 40.5049 65.3828C40.7399 63.8118 40.9688 62.3646 41.1914 61.041C41.4264 59.7051 41.6491 58.5423 41.8594 57.5527C42.0697 56.5632 42.249 55.8519 42.3975 55.4189C42.4964 55.1097 42.6263 54.7943 42.7871 54.4727C42.9603 54.151 43.1644 53.8604 43.3994 53.6006C43.6344 53.3408 43.9004 53.1305 44.1973 52.9697C44.5065 52.8089 44.859 52.7285 45.2549 52.7285C45.9352 52.7285 46.4733 52.9512 46.8691 53.3965C47.2773 53.8418 47.4814 54.4541 47.4814 55.2334ZM43.3066 56.7549C43.2448 57.0765 43.1582 57.5651 43.0469 58.2207C42.9479 58.8639 42.8366 59.6309 42.7129 60.5215C42.6016 61.3997 42.4779 62.377 42.3418 63.4531C42.2057 64.5169 42.0697 65.6178 41.9336 66.7559C42.6139 65.5931 43.2448 64.486 43.8262 63.4346C44.4076 62.3708 44.9085 61.3626 45.3291 60.4102C45.762 59.4453 46.1022 58.5423 46.3496 57.7012C46.597 56.8477 46.7207 56.0374 46.7207 55.2705C46.7207 54.7757 46.6094 54.349 46.3867 53.9902C46.1764 53.6315 45.8239 53.4521 45.3291 53.4521C44.9704 53.4521 44.6673 53.5758 44.4199 53.8232C44.1849 54.0706 43.9932 54.3675 43.8447 54.7139C43.6963 55.0602 43.5788 55.4251 43.4922 55.8086C43.418 56.1797 43.3561 56.4951 43.3066 56.7549ZM42.6943 74.3076C42.6943 74.5426 42.8366 74.7653 43.1211 74.9756C43.418 75.1735 43.7581 75.2848 44.1416 75.3096C43.9684 74.8395 43.7891 74.4808 43.6035 74.2334C43.4303 73.986 43.2572 73.8623 43.084 73.8623C42.985 73.8623 42.8923 73.8994 42.8057 73.9736C42.7314 74.0479 42.6943 74.1592 42.6943 74.3076ZM56.3506 55.2334C56.3506 56.1735 56.1774 57.1755 55.8311 58.2393C55.4971 59.3031 55.0579 60.404 54.5137 61.542C53.9694 62.68 53.3509 63.8428 52.6582 65.0303C51.9779 66.2054 51.2975 67.3743 50.6172 68.5371C50.4811 69.6875 50.3512 70.8317 50.2275 71.9697C50.1162 73.1077 50.0173 74.1901 49.9307 75.2168C49.8564 76.2311 49.7946 77.165 49.7451 78.0186C49.6956 78.8721 49.6709 79.5895 49.6709 80.1709C49.6709 81.3584 49.7266 82.4222 49.8379 83.3623C49.9616 84.3148 50.141 85.1188 50.376 85.7744C50.6234 86.4424 50.9202 86.9495 51.2666 87.2959C51.6253 87.6546 52.0459 87.834 52.5283 87.834C52.8005 87.834 53.0293 87.7474 53.2148 87.5742C53.4004 87.401 53.555 87.1784 53.6787 86.9062C53.8024 86.6341 53.8952 86.3249 53.957 85.9785C54.0189 85.6322 54.0622 85.2858 54.0869 84.9395C54.124 84.5931 54.1426 84.2653 54.1426 83.9561C54.1549 83.6468 54.1611 83.387 54.1611 83.1768C54.1611 81.7913 54.0684 80.4678 53.8828 79.2061C53.6973 77.9567 53.4684 76.8805 53.1963 75.9775H53.0479C52.751 75.9775 52.4665 75.9404 52.1943 75.8662C51.9346 75.7796 51.6995 75.6621 51.4893 75.5137C51.279 75.3652 51.112 75.1921 50.9883 74.9941C50.8646 74.7962 50.8027 74.5798 50.8027 74.3447C50.8027 74.0107 50.9017 73.7262 51.0996 73.4912C51.3099 73.2562 51.5697 73.1387 51.8789 73.1387C52.2624 73.1387 52.6273 73.3242 52.9736 73.6953C53.32 74.054 53.6354 74.5365 53.9199 75.1426C54.4147 74.9447 54.8662 74.5983 55.2744 74.1035C55.695 73.6087 56.0723 73.0583 56.4062 72.4521C56.7402 71.8337 57.0309 71.209 57.2783 70.5781C57.5381 69.9473 57.7607 69.3968 57.9463 68.9268L58.6699 69.1123C58.472 69.6442 58.237 70.2503 57.9648 70.9307C57.6927 71.5986 57.3773 72.2542 57.0186 72.8975C56.6598 73.5283 56.2454 74.1097 55.7754 74.6416C55.3177 75.1611 54.792 75.5322 54.1982 75.7549C54.3962 76.2744 54.5755 76.8372 54.7363 77.4434C54.8971 78.0371 55.0332 78.6494 55.1445 79.2803C55.2682 79.9111 55.361 80.542 55.4229 81.1729C55.4847 81.8037 55.5156 82.416 55.5156 83.0098C55.5156 83.8014 55.4476 84.5374 55.3115 85.2178C55.1878 85.8981 54.9961 86.4857 54.7363 86.9805C54.4889 87.4876 54.1735 87.8835 53.79 88.168C53.4189 88.4525 52.9798 88.5947 52.4727 88.5947C51.7923 88.5947 51.2109 88.4277 50.7285 88.0938C50.2585 87.7721 49.8626 87.3392 49.541 86.7949C49.2194 86.2507 48.9658 85.6322 48.7803 84.9395C48.5947 84.2591 48.4525 83.5602 48.3535 82.8428C48.2669 82.1253 48.2113 81.4202 48.1865 80.7275C48.1618 80.0472 48.1494 79.4411 48.1494 78.9092C48.1494 77.6846 48.2051 76.3115 48.3164 74.79C48.4277 73.2686 48.5762 71.71 48.7617 70.1143C48.9473 68.5186 49.1514 66.9414 49.374 65.3828C49.609 63.8118 49.8379 62.3646 50.0605 61.041C50.2956 59.7051 50.5182 58.5423 50.7285 57.5527C50.9388 56.5632 51.1182 55.8519 51.2666 55.4189C51.3656 55.1097 51.4954 54.7943 51.6562 54.4727C51.8294 54.151 52.0335 53.8604 52.2686 53.6006C52.5036 53.3408 52.7695 53.1305 53.0664 52.9697C53.3757 52.8089 53.7282 52.7285 54.124 52.7285C54.8044 52.7285 55.3424 52.9512 55.7383 53.3965C56.1465 53.8418 56.3506 54.4541 56.3506 55.2334ZM52.1758 56.7549C52.1139 57.0765 52.0273 57.5651 51.916 58.2207C51.8171 58.8639 51.7057 59.6309 51.582 60.5215C51.4707 61.3997 51.347 62.377 51.2109 63.4531C51.0749 64.5169 50.9388 65.6178 50.8027 66.7559C51.4831 65.5931 52.1139 64.486 52.6953 63.4346C53.2767 62.3708 53.7777 61.3626 54.1982 60.4102C54.6312 59.4453 54.9714 58.5423 55.2188 57.7012C55.4661 56.8477 55.5898 56.0374 55.5898 55.2705C55.5898 54.7757 55.4785 54.349 55.2559 53.9902C55.0456 53.6315 54.693 53.4521 54.1982 53.4521C53.8395 53.4521 53.5365 53.5758 53.2891 53.8232C53.054 54.0706 52.8623 54.3675 52.7139 54.7139C52.5654 55.0602 52.4479 55.4251 52.3613 55.8086C52.2871 56.1797 52.2253 56.4951 52.1758 56.7549ZM51.5635 74.3076C51.5635 74.5426 51.7057 74.7653 51.9902 74.9756C52.2871 75.1735 52.6273 75.2848 53.0107 75.3096C52.8376 74.8395 52.6582 74.4808 52.4727 74.2334C52.2995 73.986 52.1263 73.8623 51.9531 73.8623C51.8542 73.8623 51.7614 73.8994 51.6748 73.9736C51.6006 74.0479 51.5635 74.1592 51.5635 74.3076ZM62.0283 77.7402C61.3975 77.7402 60.7913 77.6289 60.21 77.4062C59.6286 77.1836 59.1152 76.8496 58.6699 76.4043C58.237 75.9466 57.8906 75.3776 57.6309 74.6973C57.3711 74.0169 57.2412 73.2191 57.2412 72.3037C57.2412 71.1904 57.402 70.2008 57.7236 69.335C58.0452 68.4567 58.4535 67.7207 58.9482 67.127C59.4554 66.5208 60.0182 66.0632 60.6367 65.7539C61.2552 65.4323 61.8613 65.2715 62.4551 65.2715C63.222 65.2715 63.8281 65.5251 64.2734 66.0322C64.7311 66.5394 64.96 67.195 64.96 67.999C64.96 68.6917 64.8301 69.3226 64.5703 69.8916C64.3105 70.4482 63.9642 70.9307 63.5312 71.3389C63.1107 71.7347 62.6221 72.0439 62.0654 72.2666C61.5212 72.4893 60.9521 72.6006 60.3584 72.6006C60.0739 72.6006 59.8018 72.5882 59.542 72.5635C59.2946 72.5264 59.0719 72.4893 58.874 72.4521C58.9482 73.2191 59.0967 73.8809 59.3193 74.4375C59.542 74.9941 59.8203 75.4518 60.1543 75.8105C60.4883 76.1693 60.8594 76.4352 61.2676 76.6084C61.6882 76.7816 62.1211 76.8682 62.5664 76.8682C63.123 76.8682 63.6364 76.7321 64.1064 76.46C64.5765 76.1878 65.0094 75.8353 65.4053 75.4023C65.8011 74.957 66.1598 74.4499 66.4814 73.8809C66.8154 73.3118 67.1123 72.7367 67.3721 72.1553C67.6318 71.5615 67.8607 70.9863 68.0586 70.4297C68.2689 69.8607 68.4544 69.3597 68.6152 68.9268L69.3389 69.1123C69.1781 69.5205 68.9863 70.0153 68.7637 70.5967C68.5534 71.1781 68.306 71.7904 68.0215 72.4336C67.737 73.0645 67.403 73.7015 67.0195 74.3447C66.6361 74.9756 66.2031 75.5446 65.7207 76.0518C65.2383 76.5465 64.6878 76.9548 64.0693 77.2764C63.4632 77.5856 62.7829 77.7402 62.0283 77.7402ZM62.4922 65.9951C62.0345 65.9951 61.583 66.1436 61.1377 66.4404C60.7048 66.7249 60.3151 67.1208 59.9688 67.6279C59.6224 68.1351 59.3379 68.735 59.1152 69.4277C58.9049 70.1204 58.7998 70.8626 58.7998 71.6543C58.9606 71.7161 59.1833 71.7718 59.4678 71.8213C59.7646 71.8584 60.1234 71.877 60.5439 71.877C60.9893 71.877 61.4284 71.7842 61.8613 71.5986C62.3066 71.4007 62.7025 71.1348 63.0488 70.8008C63.4076 70.4544 63.6921 70.0462 63.9023 69.5762C64.125 69.1061 64.2363 68.5928 64.2363 68.0361C64.2363 67.764 64.1992 67.5042 64.125 67.2568C64.0508 67.0094 63.9395 66.793 63.791 66.6074C63.6426 66.4219 63.457 66.2734 63.2344 66.1621C63.0241 66.0508 62.7767 65.9951 62.4922 65.9951ZM72.6787 77.7402C72.0479 77.7402 71.4417 77.6289 70.8604 77.4062C70.279 77.1836 69.7656 76.8496 69.3203 76.4043C68.8874 75.9466 68.541 75.3776 68.2812 74.6973C68.0215 74.0169 67.8916 73.2191 67.8916 72.3037C67.8916 71.1904 68.0524 70.2008 68.374 69.335C68.6956 68.4567 69.1038 67.7207 69.5986 67.127C70.1058 66.5208 70.6686 66.0632 71.2871 65.7539C71.9056 65.4323 72.5117 65.2715 73.1055 65.2715C73.8724 65.2715 74.4785 65.5251 74.9238 66.0322C75.3815 66.5394 75.6104 67.195 75.6104 67.999C75.6104 68.6917 75.4805 69.3226 75.2207 69.8916C74.9609 70.4482 74.6146 70.9307 74.1816 71.3389C73.7611 71.7347 73.2725 72.0439 72.7158 72.2666C72.1715 72.4893 71.6025 72.6006 71.0088 72.6006C70.7243 72.6006 70.4521 72.5882 70.1924 72.5635C69.945 72.5264 69.7223 72.4893 69.5244 72.4521C69.5986 73.2191 69.7471 73.8809 69.9697 74.4375C70.1924 74.9941 70.4707 75.4518 70.8047 75.8105C71.1387 76.1693 71.5098 76.4352 71.918 76.6084C72.3385 76.7816 72.7715 76.8682 73.2168 76.8682C73.7734 76.8682 74.2868 76.7321 74.7568 76.46C75.2269 76.1878 75.6598 75.8353 76.0557 75.4023C76.4515 74.957 76.8102 74.4499 77.1318 73.8809C77.4658 73.3118 77.7627 72.7367 78.0225 72.1553C78.2822 71.5615 78.5111 70.9863 78.709 70.4297C78.9193 69.8607 79.1048 69.3597 79.2656 68.9268L79.9893 69.1123C79.8285 69.5205 79.6367 70.0153 79.4141 70.5967C79.2038 71.1781 78.9564 71.7904 78.6719 72.4336C78.3874 73.0645 78.0534 73.7015 77.6699 74.3447C77.2865 74.9756 76.8535 75.5446 76.3711 76.0518C75.8887 76.5465 75.3382 76.9548 74.7197 77.2764C74.1136 77.5856 73.4333 77.7402 72.6787 77.7402ZM73.1426 65.9951C72.6849 65.9951 72.2334 66.1436 71.7881 66.4404C71.3551 66.7249 70.9655 67.1208 70.6191 67.6279C70.2728 68.1351 69.9883 68.735 69.7656 69.4277C69.5553 70.1204 69.4502 70.8626 69.4502 71.6543C69.611 71.7161 69.8337 71.7718 70.1182 71.8213C70.415 71.8584 70.7738 71.877 71.1943 71.877C71.6396 71.877 72.0788 71.7842 72.5117 71.5986C72.957 71.4007 73.3529 71.1348 73.6992 70.8008C74.0579 70.4544 74.3424 70.0462 74.5527 69.5762C74.7754 69.1061 74.8867 68.5928 74.8867 68.0361C74.8867 67.764 74.8496 67.5042 74.7754 67.2568C74.7012 67.0094 74.5898 66.793 74.4414 66.6074C74.293 66.4219 74.1074 66.2734 73.8848 66.1621C73.6745 66.0508 73.4271 65.9951 73.1426 65.9951Z" fill="white"/>
</svg>
